<svg width="120" height="120" viewBox="0 0 120 120" fill="none" xmlns="http://www.w3.org/2000/svg">
<path d="M15 60C15 65.9095 16.164 71.7611 18.4254 77.2208C20.6869 82.6804 24.0016 87.6412 28.1802 91.8198C32.3588 95.9984 37.3196 99.3131 42.7792 101.575C48.2389 103.836 54.0905 105 60 105C65.9095 105 71.7611 103.836 77.2208 101.575C82.6804 99.3131 87.6412 95.9984 91.8198 91.8198C95.9984 87.6412 99.3131 82.6804 101.575 77.2208C103.836 71.7611 105 65.9095 105 60C105 48.0653 100.259 36.6193 91.8198 28.1802C83.3807 19.7411 71.9347 15 60 15C48.0653 15 36.6193 19.7411 28.1802 28.1802C19.7411 36.6193 15 48.0653 15 60Z" stroke="black" stroke-width="10" stroke-linecap="round" stroke-linejoin="round"/>
<path d="M60 35V60L75 75" stroke="black" stroke-width="10" stroke-linecap="round" stroke-linejoin="round"/>
</svg>
