<svg width="120" height="120" viewBox="0 0 120 120" fill="none" xmlns="http://www.w3.org/2000/svg">
<path d="M63.7125 22.5C63.7125 21.5054 63.3174 20.5516 62.6141 19.8484C61.9109 19.1451 60.957 18.75 59.9625 18.75C58.9679 18.75 58.0141 19.1451 57.3108 19.8484C56.6076 20.5516 56.2125 21.5054 56.2125 22.5V33.7125H52.695C50.7035 31.3688 48.2253 29.4872 45.4328 28.1984C42.6403 26.9097 39.6005 26.2448 36.525 26.25H14.925C14.9196 29.0442 15.468 31.8118 16.5383 34.3928C17.6087 36.9738 19.18 39.3172 21.1612 41.2875C15.7751 45.0967 11.3824 50.1435 8.3525 56.0035C5.32264 61.8636 3.74421 68.3655 3.74999 74.9625C3.74999 97.7737 22.23 116.212 45 116.212H74.85C97.6612 116.212 116.1 97.7325 116.1 74.9625C116.114 68.3593 114.538 61.8498 111.504 55.9844C108.471 50.119 104.07 45.0703 98.6737 41.265C100.648 39.2953 102.213 36.9547 103.28 34.3778C104.346 31.801 104.892 29.0388 104.887 26.25H83.2875C80.2119 26.2448 77.1722 26.9097 74.3797 28.1984C71.5872 29.4872 69.109 31.3688 67.1175 33.7125H63.7125V22.5ZM22.7025 49.62C21.9448 51.8389 21.5596 54.1678 21.5625 56.5125H43.2C46.4336 56.5157 49.625 55.7782 52.5294 54.3566C55.4338 52.935 57.9739 50.867 59.955 48.3113C61.938 50.8686 64.4806 52.9375 67.3877 54.3591C70.2947 55.7808 73.4889 56.5175 76.725 56.5125H98.325C98.325 54.105 97.9237 51.7912 97.1812 49.6312C100.781 52.7937 103.662 56.6896 105.631 61.0574C107.601 65.4251 108.613 70.1637 108.6 74.955V74.9625C108.6 93.5925 93.5137 108.712 74.85 108.712H45C26.37 108.712 11.25 93.6263 11.25 74.9625C11.2441 70.1664 12.2629 65.4244 14.238 61.0538C16.2131 56.6832 19.0989 52.785 22.7025 49.62Z" fill="black"/>
</svg>
