<svg width="120" height="120" viewBox="0 0 120 120" fill="none" xmlns="http://www.w3.org/2000/svg">
<path d="M63.7125 22.5C63.7125 21.5054 63.3174 20.5516 62.6141 19.8484C61.9109 19.1451 60.957 18.75 59.9625 18.75C58.9679 18.75 58.0141 19.1451 57.3108 19.8484C56.6076 20.5516 56.2125 21.5054 56.2125 22.5V33.7125H52.695C50.7035 31.3688 48.2253 29.4872 45.4328 28.1984C42.6403 26.9097 39.6005 26.2448 36.525 26.25H14.925C14.9196 29.0442 15.468 31.8118 16.5383 34.3928C17.6087 36.9738 19.18 39.3172 21.1612 41.2875C15.7751 45.0967 11.3824 50.1435 8.3525 56.0035C5.32264 61.8636 3.74421 68.3655 3.74999 74.9625C3.74999 97.7737 22.23 116.212 45 116.212H74.85C97.6612 116.212 116.1 97.7325 116.1 74.9625C116.114 68.3593 114.538 61.8498 111.504 55.9844C108.471 50.119 104.07 45.0703 98.6737 41.265C100.648 39.2953 102.213 36.9547 103.28 34.3778C104.346 31.801 104.892 29.0388 104.887 26.25H83.2875C80.2119 26.2448 77.1722 26.9097 74.3797 28.1984C71.5872 29.4872 69.109 31.3688 67.1175 33.7125H63.7125V22.5ZM22.7025 49.62C21.9448 51.8389 21.5596 54.1678 21.5625 56.5125H43.2C46.4336 56.5157 49.625 55.7782 52.5294 54.3566C55.4338 52.935 57.9739 50.867 59.955 48.3113C61.938 50.8686 64.4806 52.9375 67.3877 54.3591C70.2947 55.7808 73.4889 56.5175 76.725 56.5125H98.325C98.325 54.105 97.9237 51.7912 97.1812 49.6312C100.781 52.7937 103.662 56.6896 105.631 61.0574C107.601 65.4251 108.613 70.1637 108.6 74.955V74.9625C108.6 93.5925 93.5137 108.712 74.85 108.712H45C26.37 108.712 11.25 93.6263 11.25 74.9625C11.2441 70.1664 12.2629 65.4244 14.238 61.0538C16.2131 56.6832 19.0989 52.785 22.7025 49.62Z" fill="black"/>
<rect x="80" y="81" width="36" height="35" rx="17.5" fill="white"/>
<path d="M106.525 92.5185H88.2203C87.8967 92.5185 87.5863 92.6473 87.3574 92.8765C87.1286 93.1057 87 93.4166 87 93.7407V98.6296C87.0038 101.199 87.9745 103.672 89.7183 105.556H88.2203C87.8967 105.556 87.5863 105.684 87.3574 105.914C87.1286 106.143 87 106.454 87 106.778C87 107.102 87.1286 107.413 87.3574 107.642C87.5863 107.871 87.8967 108 88.2203 108H106.119C106.442 108 106.753 107.871 106.982 107.642C107.21 107.413 107.339 107.102 107.339 106.778C107.339 106.454 107.21 106.143 106.982 105.914C106.753 105.684 106.442 105.556 106.119 105.556H104.621C105.497 104.607 106.188 103.501 106.655 102.296C107.819 102.263 108.924 101.776 109.735 100.939C110.547 100.102 111 98.9813 111 97.8148V97C110.999 95.8119 110.527 94.6728 109.688 93.8326C108.849 92.9925 107.712 92.5199 106.525 92.5185ZM104.898 98.6296C104.896 100.067 104.495 101.475 103.741 102.698C102.987 103.921 101.909 104.91 100.627 105.556H93.7119C92.4299 104.91 91.352 103.921 90.5979 102.698C89.8439 101.475 89.4433 100.067 89.4407 98.6296V94.963H104.898V98.6296ZM108.559 97.8148C108.559 98.2216 108.437 98.6189 108.209 98.9556C107.981 99.2924 107.658 99.5531 107.281 99.7042C107.32 99.3473 107.339 98.9886 107.339 98.6296V95.1341C107.702 95.2925 108.01 95.5535 108.227 95.8849C108.444 96.2163 108.559 96.6038 108.559 97V97.8148ZM91.8814 89.6667V87.2222C91.8814 86.8981 92.0099 86.5872 92.2388 86.358C92.4676 86.1288 92.778 86 93.1017 86C93.4253 86 93.7357 86.1288 93.9646 86.358C94.1935 86.5872 94.322 86.8981 94.322 87.2222V89.6667C94.322 89.9908 94.1935 90.3017 93.9646 90.5309C93.7357 90.7601 93.4253 90.8889 93.1017 90.8889C92.778 90.8889 92.4676 90.7601 92.2388 90.5309C92.0099 90.3017 91.8814 89.9908 91.8814 89.6667ZM95.9492 89.6667V87.2222C95.9492 86.8981 96.0777 86.5872 96.3066 86.358C96.5354 86.1288 96.8458 86 97.1695 86C97.4931 86 97.8035 86.1288 98.0324 86.358C98.2613 86.5872 98.3898 86.8981 98.3898 87.2222V89.6667C98.3898 89.9908 98.2613 90.3017 98.0324 90.5309C97.8035 90.7601 97.4931 90.8889 97.1695 90.8889C96.8458 90.8889 96.5354 90.7601 96.3066 90.5309C96.0777 90.3017 95.9492 89.9908 95.9492 89.6667ZM100.017 89.6667V87.2222C100.017 86.8981 100.146 86.5872 100.374 86.358C100.603 86.1288 100.914 86 101.237 86C101.561 86 101.871 86.1288 102.1 86.358C102.329 86.5872 102.458 86.8981 102.458 87.2222V89.6667C102.458 89.9908 102.329 90.3017 102.1 90.5309C101.871 90.7601 101.561 90.8889 101.237 90.8889C100.914 90.8889 100.603 90.7601 100.374 90.5309C100.146 90.3017 100.017 89.9908 100.017 89.6667Z" fill="black"/>
</svg>
