<svg width="120" height="120" viewBox="0 0 120 120" fill="none" xmlns="http://www.w3.org/2000/svg">
<g clip-path="url(#clip0_1_62)">
<path d="M60 10C64.685 10 69.25 10.54 73.63 11.555C74.2784 11.6947 74.8924 11.962 75.4365 12.3414C75.9805 12.7207 76.4437 13.2045 76.7989 13.7646C77.1542 14.3246 77.3945 14.9498 77.5058 15.6036C77.6171 16.2574 77.5972 16.9269 77.4473 17.5729C77.2974 18.219 77.0204 18.8288 76.6326 19.3668C76.2447 19.9048 75.7537 20.3603 75.1881 20.7067C74.6225 21.0531 73.9937 21.2835 73.3382 21.3845C72.6827 21.4855 72.0136 21.4551 71.37 21.295C68.9044 20.7222 66.3989 20.3377 63.875 20.145L63.505 20.135C71.2771 20.7298 78.7591 23.3445 85.21 27.72L88.24 24.69C88.7042 24.2254 89.2554 23.8569 89.8621 23.6053C90.4687 23.3538 91.119 23.2242 91.7757 23.224C92.4325 23.2238 93.0828 23.3529 93.6897 23.604C94.2965 23.8551 94.848 24.2233 95.3125 24.6875C95.7771 25.1517 96.1456 25.7029 96.3972 26.3096C96.6487 26.9162 96.7783 27.5665 96.7785 28.2232C96.7788 28.88 96.6496 29.5303 96.3985 30.1372C96.1474 30.744 95.7792 31.2955 95.315 31.76L92.84 34.235C99.8283 41.6937 104.069 51.3093 104.865 61.4993C105.661 71.6893 102.964 81.8466 97.2178 90.2996C91.472 98.7527 83.0196 104.998 73.2517 108.007C63.4838 111.017 52.9824 110.612 43.4756 106.858C33.9688 103.104 26.023 96.2263 20.9459 87.3554C15.8688 78.4846 13.9628 68.1496 15.5417 58.0512C17.1205 47.9529 22.0901 38.6929 29.6326 31.7951C37.1751 24.8973 46.8411 20.7727 57.04 20.1L56.36 20.13C53.7568 20.3149 51.1721 20.7045 48.63 21.295C47.347 21.5715 46.0068 21.3324 44.8985 20.6294C43.7902 19.9264 43.0027 18.8158 42.7061 17.5373C42.4095 16.2589 42.6274 14.915 43.3128 13.7958C43.9983 12.6766 45.0964 11.8717 46.37 11.555C50.75 10.54 55.32 10 60 10ZM60 30C55.4037 30 50.8525 30.9053 46.6061 32.6642C42.3597 34.4231 38.5013 37.0012 35.2513 40.2513C32.0012 43.5013 29.4231 47.3597 27.6642 51.6061C25.9053 55.8525 25 60.4037 25 65C25 69.5963 25.9053 74.1475 27.6642 78.3939C29.4231 82.6403 32.0012 86.4987 35.2513 89.7487C38.5013 92.9988 42.3597 95.5769 46.6061 97.3358C50.8525 99.0947 55.4037 100 60 100C69.2826 100 78.185 96.3125 84.7487 89.7487C91.3125 83.185 95 74.2826 95 65C95 55.7174 91.3125 46.815 84.7487 40.2513C78.185 33.6875 69.2826 30 60 30ZM60 40C61.2247 40.0002 62.4067 40.4498 63.3219 41.2636C64.237 42.0774 64.8217 43.1987 64.965 44.415L65 45V65C64.9986 66.2744 64.5106 67.5002 63.6358 68.4268C62.7609 69.3535 61.5652 69.9112 60.293 69.9859C59.0208 70.0605 57.7681 69.6466 56.7908 68.8287C55.8136 68.0107 55.1855 66.8505 55.035 65.585L55 65V45C55 43.6739 55.5268 42.4021 56.4645 41.4645C57.4021 40.5268 58.6739 40 60 40Z" fill="black"/>
<rect width="36" height="36" rx="18" transform="matrix(1 0 0 -1 69 110)" fill="white"/>
<path d="M96.4096 94.6469C96.8899 94.3915 97.2916 94.0102 97.5718 93.544C97.852 93.0777 98 92.544 98 92C98 91.456 97.852 90.9223 97.5718 90.456C97.2916 89.9897 96.8899 89.6085 96.4096 89.3531L83.5972 82.3863C81.5341 81.2633 79 82.7233 79 85.0322V98.9668C79 101.277 81.5341 102.736 83.5972 101.615L96.4096 94.6469Z" fill="black"/>
</g>
<defs>
<clipPath id="clip0_1_62">
<rect width="120" height="120" fill="white"/>
</clipPath>
</defs>
</svg>
