<svg width="120" height="120" viewBox="0 0 120 120" fill="none" xmlns="http://www.w3.org/2000/svg">
<g clip-path="url(#clip0_3_97)">
<path fill-rule="evenodd" clip-rule="evenodd" d="M3 20C3 17.3478 4.05357 14.8043 5.92893 12.9289C7.8043 11.0536 10.3478 10 13 10H63C65.6522 10 68.1957 11.0536 70.0711 12.9289C71.9464 14.8043 73 17.3478 73 20V29.3C72.9995 33.4157 71.9829 37.4676 70.0405 41.0961C68.098 44.7246 65.2898 47.8174 61.865 50.1L47.015 60L61.865 69.9C65.2898 72.1826 68.098 75.2754 70.0405 78.9039C71.9829 82.5324 72.9995 86.5843 73 90.7V100C73 102.652 71.9464 105.196 70.0711 107.071C68.1957 108.946 65.6522 110 63 110H13C10.3478 110 7.8043 108.946 5.92893 107.071C4.05357 105.196 3 102.652 3 100V90.7C2.99993 86.5847 4.01576 82.5331 5.95733 78.9046C7.8989 75.2762 10.7062 72.1831 14.13 69.9L28.99 60L14.14 50.1C10.7143 47.818 7.9051 44.7255 5.96174 41.0969C4.01839 37.4684 3.00103 33.4162 3 29.3V20ZM38 53.99L56.32 41.775C58.374 40.4058 60.0583 38.5509 61.2235 36.3747C62.3888 34.1986 62.999 31.7685 63 29.3V20H13V29.3C13.001 31.7685 13.6112 34.1986 14.7765 36.3747C15.9417 38.5509 17.626 40.4058 19.68 41.775L38 53.99ZM38 66.01L19.68 78.225C17.626 79.5942 15.9417 81.4491 14.7765 83.6253C13.6112 85.8014 13.001 88.2315 13 90.7V100H63V90.7C62.999 88.2315 62.3888 85.8014 61.2235 83.6253C60.0583 81.4491 58.374 79.5942 56.32 78.225L38 66.01Z" fill="black"/>
<rect width="75" height="75" rx="37.5" transform="matrix(1 0 0 -1 42 97)" fill="white"/>
<path d="M102.066 65.9849C103.254 65.3592 104.248 64.4251 104.941 63.2827C105.634 62.1403 106 60.8327 106 59.5C106 58.1673 105.634 56.8596 104.941 55.7173C104.248 54.5749 103.254 53.6408 102.066 53.015L70.3719 35.9464C65.2685 33.1951 59 36.772 59 42.4289V76.5686C59 82.2279 65.2685 85.8024 70.3719 83.056L102.066 65.9849Z" fill="black"/>
</g>
<defs>
<clipPath id="clip0_3_97">
<rect width="120" height="120" fill="white"/>
</clipPath>
</defs>
</svg>
