<svg width="120" height="120" viewBox="0 0 120 120" fill="none" xmlns="http://www.w3.org/2000/svg">
<g clip-path="url(#clip0_1_20)">
<path fill-rule="evenodd" clip-rule="evenodd" d="M25 20C25 17.3478 26.0536 14.8043 27.9289 12.9289C29.8043 11.0536 32.3478 10 35 10H85C87.6522 10 90.1957 11.0536 92.0711 12.9289C93.9464 14.8043 95 17.3478 95 20V29.3C94.9995 33.4157 93.9829 37.4676 92.0405 41.0961C90.098 44.7246 87.2898 47.8174 83.865 50.1L69.015 60L83.865 69.9C87.2898 72.1826 90.098 75.2754 92.0405 78.9039C93.9829 82.5324 94.9995 86.5843 95 90.7V100C95 102.652 93.9464 105.196 92.0711 107.071C90.1957 108.946 87.6522 110 85 110H35C32.3478 110 29.8043 108.946 27.9289 107.071C26.0536 105.196 25 102.652 25 100V90.7C24.9999 86.5847 26.0158 82.5331 27.9573 78.9046C29.8989 75.2762 32.7062 72.1831 36.13 69.9L50.99 60L36.14 50.1C32.7143 47.818 29.9051 44.7255 27.9617 41.0969C26.0184 37.4684 25.001 33.4162 25 29.3V20ZM60 53.99L78.32 41.775C80.374 40.4058 82.0583 38.5509 83.2235 36.3747C84.3888 34.1986 84.999 31.7685 85 29.3V20H35V29.3C35.001 31.7685 35.6112 34.1986 36.7765 36.3747C37.9417 38.5509 39.626 40.4058 41.68 41.775L60 53.99ZM60 66.01L41.68 78.225C39.626 79.5942 37.9417 81.4491 36.7765 83.6253C35.6112 85.8014 35.001 88.2315 35 90.7V100H85V90.7C84.999 88.2315 84.3888 85.8014 83.2235 83.6253C82.0583 81.4491 80.374 79.5942 78.32 78.225L60 66.01Z" fill="black"/>
</g>
<defs>
<clipPath id="clip0_1_20">
<rect width="120" height="120" fill="white"/>
</clipPath>
</defs>
</svg>
